<svg width="52" height="47" viewBox="0 0 52 47" fill="none" xmlns="http://www.w3.org/2000/svg">
<path d="M3.21117 24.3119V30.1204C3.21117 30.8968 3.06992 31.8374 3.82045 32.3134C4.78091 32.9224 5.55093 31.9631 6.08106 31.2614C7.47572 29.4155 8.89784 27.5897 10.3176 25.764C10.7027 25.2688 12.0734 24.2885 12.0734 23.6895C12.0734 22.3682 10.352 23.2106 9.9229 23.694C8.72106 25.0478 7.65393 26.5957 6.56388 28.046C5.98237 28.8196 5.25733 29.5544 4.83091 30.4316C4.20507 28.2622 5.3464 25.6299 4.67763 23.4867C4.46801 22.8148 3.73199 22.9389 3.21117 22.7423C2.47861 22.4655 1.88543 21.7558 1.67138 20.9927C1.28494 19.6152 1.59143 17.7557 1.59143 16.3252V6.5751C1.59143 4.90686 1.26876 3.03142 2.90745 2.03452C3.63955 1.58918 4.52198 1.70008 5.33702 1.70008H9.99371H23.2551C25.2526 1.70008 27.686 1.31277 29.6328 1.77065C32.5228 2.45038 31.1373 5.41978 31.7014 7.40032C31.859 7.95389 32.6637 8.10294 32.9706 7.58867C33.2619 7.1004 33.0746 6.09407 33.0746 5.53785C33.0746 3.31703 32.8103 1.05814 30.3413 0.343722C28.1588 -0.287825 25.411 0.144193 23.1538 0.144193H8.5764C6.23126 0.144193 2.99036 -0.498034 1.19048 1.3904C-0.221655 2.87203 0.0728869 4.9873 0.0728869 6.88625V16.2214C0.0728869 17.7681 -0.117589 19.4642 0.117296 20.9927C0.368434 22.6268 1.57644 24.0644 3.21105 24.3119L3.21117 24.3119ZM17.6873 10.1499C15.7857 10.5011 14.4772 12.1497 14.1886 14.0432C13.9304 15.7366 14.1442 17.6194 14.1442 19.3331V29.6018C14.1442 31.6736 13.7552 34.1539 15.0314 35.929C16.4632 37.9204 18.6883 37.6923 20.8255 37.6923H34.1881H37.6301C38.1113 37.6923 38.7203 37.592 39.1446 37.873C39.9011 38.3742 40.4902 39.4584 41.0365 40.1816C42.2469 41.7839 43.481 43.3708 44.7163 44.9529C45.3157 45.7206 46.086 47.2291 47.2471 46.9706C48.3648 46.7217 48.2594 45.5515 48.2594 44.6418V40.1817C48.2594 39.5137 48.1193 38.6556 48.2916 38.0095C48.4388 37.4571 49.4454 37.3008 49.8791 37.0131C50.7421 36.4406 51.3763 35.5816 51.6919 34.5806C52.2257 32.8884 51.9038 30.7397 51.9038 28.9795V17.6736C51.9038 15.6283 52.235 13.3425 50.8585 11.6577C48.9293 9.29619 45.0628 10.1017 42.3879 10.1017H25.7859C23.2024 10.1017 20.2281 9.68047 17.6873 10.1499L17.6873 10.1499ZM46.741 44.9529C44.806 43.3493 43.3002 40.6311 41.7592 38.6258C41.0953 37.7616 40.3946 36.4803 39.2498 36.2742C37.5281 35.9642 35.5319 36.2401 33.7833 36.2401H22.7489C20.837 36.2401 17.8117 36.83 16.3929 35.1987C15.2498 33.8843 15.6627 31.6389 15.6627 30.0166V17.0511C15.6627 15.272 15.3054 13.062 17.0799 12.0063C18.6434 11.0763 21.2078 11.5538 22.9514 11.5538H36.5165H45.8299C47.3431 11.5538 48.9274 11.4793 49.8994 12.9022C50.8359 14.2732 50.3853 16.7009 50.3853 18.2958V29.1868C50.3853 30.7291 50.7388 32.8117 50.2121 34.2693C49.9329 35.0423 49.3108 35.6787 48.5632 35.9829C47.8913 36.2564 47.0636 36.0816 46.8143 36.9662C46.5842 37.7823 46.741 38.8192 46.741 39.663V44.9529L46.741 44.9529ZM20.8275 16.9031C20.0309 17.1466 20.1315 18.2252 20.9272 18.3759C22.8199 18.7343 25.074 18.3995 27.0007 18.3995H39.5535H43.9065C44.4082 18.3995 45.1931 18.5481 45.5836 18.147C46.1023 17.6144 45.6224 16.9491 45.02 16.8632C43.492 16.6453 41.8055 16.8437 40.2622 16.8437H26.8995H22.8502C22.2202 16.8437 21.4358 16.7171 20.8275 16.9031L20.8275 16.9031ZM20.6342 22.9662C20.0611 23.2969 20.2173 24.1171 20.8271 24.2788C21.9359 24.5728 23.4253 24.3117 24.5712 24.3117H39.6548H44.0078C44.4792 24.3117 45.2222 24.4559 45.5836 24.0713C46.022 23.6047 45.6939 22.9386 45.1198 22.8709C43.6419 22.6965 42.0541 22.859 40.5659 22.859H26.1909H22.2428C21.7757 22.859 21.0546 22.723 20.6342 22.9657V22.9662ZM20.7288 28.8483C20.044 29.1342 20.1745 30.0413 20.8276 30.2594C21.8384 30.5971 23.3088 30.3272 24.3688 30.3272H39.5536H43.9066C44.4128 30.3272 45.1831 30.4627 45.5836 30.0664C46.1058 29.5499 45.6199 28.8516 45.02 28.7826C43.5397 28.6122 41.9549 28.7707 40.4647 28.7707H26.5959H22.5466C22.0014 28.7707 21.2415 28.6337 20.7289 28.8477L20.7288 28.8483Z" fill="#5A5A5A"/>
</svg>
