<svg width="52" height="34" viewBox="0 0 52 34" fill="none" xmlns="http://www.w3.org/2000/svg">
<path d="M10.6359 0.25334C7.88167 0.806493 6.26339 4.19069 5.24001 6.36629C2.4782 12.2376 0.53416 19.0945 0.153331 25.5227C-0.00148465 28.136 -0.532418 30.9214 1.99979 32.6916C4.37378 34.3514 7.59138 34.5285 9.71019 32.4493C11.3776 30.813 12.9259 29.0529 14.5318 27.3626C15.1719 26.6889 15.8653 25.6117 16.7387 25.2011C17.7993 24.7024 19.9347 25.0898 21.1143 25.0898H31.1322C32.2276 25.0898 34.1756 24.7372 35.1623 25.2011C35.9928 25.5914 36.6654 26.6089 37.2678 27.2544C39.8143 29.9831 42.8378 34.9557 47.368 33.8394C49.0205 33.4323 50.9025 32.3698 51.5738 30.8259C52.3287 29.0896 51.8987 26.474 51.6613 24.6569C50.9211 18.9925 49.6525 13.3046 47.391 7.98972C46.4081 5.6798 45.2772 3.14758 43.3374 1.39212C41.5681 -0.208986 37.7038 -0.212833 35.3926 0.309833C34.2909 0.558975 33.6624 1.2551 33.122 2.14539C32.8596 2.57776 32.544 3.38676 32.0292 3.59532C31.1506 3.95107 29.5524 3.66059 28.5989 3.66059C25.8765 3.66059 22.7656 4.06006 20.0829 3.64455C19.0362 3.48243 18.5167 1.40509 17.6594 0.798685C16.3572 -0.122533 14.3509 0.197259 12.8237 0.197259C12.1138 0.197259 11.3332 0.113256 10.6359 0.253328V0.25334ZM11.2116 1.42035C12.6075 1.22489 15.6565 0.990468 16.8419 1.80489C17.6129 2.33467 18.2141 3.6136 18.6042 4.41817C19.1213 5.48443 18.8903 6.78642 19.8528 7.65365C20.5709 8.30075 21.6561 8.39902 22.6112 8.42099C24.4895 8.46428 26.3745 8.42263 28.2535 8.42263C29.2663 8.42263 30.553 8.50661 31.4776 8.05011C32.7658 7.41405 32.782 6.12288 33.0945 4.95932C33.3466 4.0212 34.2174 2.38327 35.0592 1.8049C35.6819 1.37707 36.6133 1.38801 37.3501 1.38779C38.9912 1.38738 40.8262 1.08031 42.1846 2.10956C44.0788 3.54456 45.1534 6.14096 46.0323 8.20617C48.2242 13.3568 49.6377 18.9258 50.2658 24.4404C50.652 27.8308 51.3013 31.6624 46.7923 32.6767C44.5093 33.1902 43.3042 31.724 41.937 30.2848C40.569 28.8449 39.1979 27.407 37.8436 25.9556C37.274 25.3454 36.5718 24.2536 35.7381 23.9645C34.526 23.5444 32.5385 23.8993 31.2473 23.8993H20.9992C19.6818 23.8993 17.2282 23.4532 16.0479 24.0105C15.267 24.3793 14.6448 25.3517 14.0712 25.9556L9.9641 30.2848C9.26699 31.0185 8.59625 31.9966 7.64202 32.4494C6.11127 33.1757 4.21661 32.6238 2.92097 31.7176C0.630104 30.1154 1.27412 26.9989 1.60546 24.6569C2.44634 18.7133 3.68479 12.6164 6.34883 7.12389C7.27015 5.22438 8.68584 1.77406 11.2116 1.42036V1.42035ZM31.7079 4.95932C31.6932 5.6259 31.5779 6.59574 30.8806 6.95364C30.2237 7.29078 29.2064 7.12389 28.4838 7.12389H23.3021C22.5729 7.12389 21.5481 7.29078 20.9053 6.89769C20.2113 6.47333 20.1936 5.65036 20.1931 4.95932H31.7079ZM35.6229 8.58151C31.7916 9.25945 32.9365 14.6475 36.7744 14.0149C40.4841 13.4035 39.2811 7.93409 35.6229 8.58151ZM11.0965 12.3188C10.2942 12.3188 9.40333 12.2051 8.67848 12.593C7.20177 13.3833 6.97034 15.454 8.34363 16.4544C9.14874 17.0407 10.1376 16.9727 11.0965 16.9727C11.0965 17.8512 11.0672 18.821 11.6492 19.5658C12.6947 20.904 14.9353 20.6319 15.7753 19.2455C16.1835 18.5716 16.0478 17.7193 16.0478 16.9727C16.9342 16.9727 17.9269 17.0798 18.6961 16.5774C20.0903 15.6668 20.2436 13.5506 18.6944 12.6828C17.8803 12.2269 16.9561 12.3188 16.0477 12.3188C16.0477 11.5378 16.1861 10.643 15.756 9.93826C14.9211 8.57014 12.6226 8.45034 11.6304 9.72299C11.0421 10.4777 11.0963 11.4324 11.0963 12.3188H11.0965ZM35.738 9.87224C37.7771 9.435 38.5495 12.3134 36.544 12.7995C34.5518 13.2824 33.7057 10.3081 35.738 9.87224ZM13.3998 10.0904C15.529 9.68793 14.2446 12.6403 15.048 13.3455C15.7057 13.9229 16.8715 13.4637 17.6593 13.652C18.4768 13.8474 18.7162 14.891 18.0941 15.4105C17.2623 16.105 15.6756 15.1589 14.9656 16.0233C14.2623 16.8797 15.5131 18.9531 13.7446 19.1688C11.7164 19.4164 13.0009 16.692 12.1978 15.9374C11.6175 15.3918 10.4446 15.7749 9.71468 15.6493C8.84969 15.5002 8.43573 14.3652 9.17843 13.8226C10.0232 13.2052 11.7132 14.1576 12.3423 13.1615C12.905 12.2708 11.8084 10.3912 13.3998 10.0904ZM41.265 11.9432C37.6119 12.7356 39.0276 18.0764 42.6468 17.3495C46.4704 16.5816 45.0699 11.1179 41.265 11.9432ZM41.8408 13.1165C43.7843 12.8761 44.3696 15.7506 42.4165 16.0822C40.2536 16.4493 39.7071 13.3802 41.8408 13.1165ZM35.738 15.1831C31.9717 15.8043 32.7875 21.2884 36.544 20.6936C40.3172 20.0961 39.4774 14.5664 35.738 15.1831ZM35.738 16.4742C37.7575 16.0405 38.5518 18.9539 36.544 19.4041C34.5159 19.8589 33.7325 16.9048 35.738 16.4742Z" fill="#5A5A5A"/>
</svg>
