<svg width="64" height="44" viewBox="0 0 64 44" fill="none" xmlns="http://www.w3.org/2000/svg">
<path d="M0.468555 18V15.425L6.79356 8.25H0.543555V5.6H10.4436V8.175L4.01855 15.35H10.5686V18H0.468555ZM17.8814 18.3C16.3314 18.3 15.1314 17.8167 14.2814 16.85C13.4481 15.8833 13.0314 14.4667 13.0314 12.6V5.6H16.2064V12.3C16.2064 13.3667 16.4231 14.1833 16.8564 14.75C17.2898 15.3167 17.9731 15.6 18.9064 15.6C19.7898 15.6 20.5148 15.2833 21.0814 14.65C21.6648 14.0167 21.9564 13.1333 21.9564 12V5.6H25.1564V18H22.3314L22.0814 15.9C21.6981 16.6333 21.1398 17.2167 20.4064 17.65C19.6898 18.0833 18.8481 18.3 17.8814 18.3ZM28.4414 18V-7.15256e-07H31.6414V7.5C32.0581 6.81667 32.6164 6.28333 33.3164 5.9C34.0331 5.5 34.8497 5.3 35.7664 5.3C37.2997 5.3 38.4831 5.78333 39.3164 6.75C40.1664 7.71667 40.5914 9.13333 40.5914 11V18H37.4164V11.3C37.4164 10.2333 37.1997 9.41667 36.7664 8.85C36.3497 8.28333 35.6831 8 34.7664 8C33.8664 8 33.1164 8.31667 32.5164 8.95C31.9331 9.58333 31.6414 10.4667 31.6414 11.6V18H28.4414ZM49.3514 18.3C48.1847 18.3 47.143 18.0167 46.2264 17.45C45.3097 16.8833 44.5847 16.1083 44.0514 15.125C43.518 14.1417 43.2514 13.025 43.2514 11.775C43.2514 10.525 43.518 9.41667 44.0514 8.45C44.5847 7.46667 45.3097 6.7 46.2264 6.15C47.143 5.58333 48.1847 5.3 49.3514 5.3C50.2847 5.3 51.1014 5.475 51.8014 5.825C52.5014 6.175 53.068 6.66667 53.5014 7.3V-7.15256e-07H56.7014V18H53.8514L53.5014 16.225C53.1014 16.775 52.568 17.2583 51.9014 17.675C51.2514 18.0917 50.4014 18.3 49.3514 18.3ZM50.0264 15.5C51.0597 15.5 51.9014 15.1583 52.5514 14.475C53.218 13.775 53.5514 12.8833 53.5514 11.8C53.5514 10.7167 53.218 9.83333 52.5514 9.15C51.9014 8.45 51.0597 8.1 50.0264 8.1C49.0097 8.1 48.168 8.44167 47.5014 9.125C46.8347 9.80833 46.5014 10.6917 46.5014 11.775C46.5014 12.8583 46.8347 13.75 47.5014 14.45C48.168 15.15 49.0097 15.5 50.0264 15.5ZM61.685 3.675C61.1016 3.675 60.6183 3.5 60.235 3.15C59.8683 2.8 59.685 2.35833 59.685 1.825C59.685 1.29167 59.8683 0.858332 60.235 0.524998C60.6183 0.174999 61.1016 -7.15256e-07 61.685 -7.15256e-07C62.2683 -7.15256e-07 62.7433 0.174999 63.11 0.524998C63.4933 0.858332 63.685 1.29167 63.685 1.825C63.685 2.35833 63.4933 2.8 63.11 3.15C62.7433 3.5 62.2683 3.675 61.685 3.675ZM60.085 18V5.6H63.285V18H60.085ZM31.2914 38.1V35.425H41.7664V38.1H31.2914ZM46.475 29.675C45.8917 29.675 45.4083 29.5 45.025 29.15C44.6583 28.8 44.475 28.3583 44.475 27.825C44.475 27.2917 44.6583 26.8583 45.025 26.525C45.4083 26.175 45.8917 26 46.475 26C47.0583 26 47.5333 26.175 47.9 26.525C48.2833 26.8583 48.475 27.2917 48.475 27.825C48.475 28.3583 48.2833 28.8 47.9 29.15C47.5333 29.5 47.0583 29.675 46.475 29.675ZM44.875 44V31.6H48.075V44H44.875ZM51.415 44V31.6H54.24L54.49 33.7C54.8734 32.9667 55.4234 32.3833 56.14 31.95C56.8734 31.5167 57.7317 31.3 58.715 31.3C60.2484 31.3 61.44 31.7833 62.29 32.75C63.14 33.7167 63.565 35.1333 63.565 37V44H60.365V37.3C60.365 36.2333 60.1484 35.4167 59.715 34.85C59.2817 34.2833 58.6067 34 57.69 34C56.79 34 56.0484 34.3167 55.465 34.95C54.8984 35.5833 54.615 36.4667 54.615 37.6V44H51.415Z" fill="#202020"/>
</svg>
