<svg width="52" height="52" viewBox="0 0 52 52" fill="none" xmlns="http://www.w3.org/2000/svg">
<path d="M7.7186 28.5934C7.71342 26.6942 7.39397 24.8085 7.52457 22.8991C7.76861 19.3311 9.07979 15.8424 11.3022 13.0359C18.027 4.54391 31.2042 3.33684 38.9997 11.104C40.2592 12.3589 41.3946 13.7131 42.2637 15.2729C43.6471 17.7552 44.4574 20.566 44.5817 23.4076C44.6574 25.1373 44.3825 26.8645 44.3825 28.5934C42.9649 28.2262 41.4084 28.1491 40.56 29.6102C39.7533 30.9997 39.6202 33.1308 39.2831 34.6944C38.5734 37.9864 37.8359 41.2754 37.0821 44.5576C36.7258 46.1092 35.7696 48.4074 36.4799 49.9468C37.1751 51.4533 39.6315 51.8611 41.1325 51.9713C41.898 52.0274 42.6251 51.9795 43.2638 51.5089C43.5775 51.2781 43.8164 50.7513 44.1981 50.6477C44.6359 50.5288 45.2673 50.8241 45.7028 50.9011C46.5569 51.0521 47.4733 50.8349 48.1098 50.2184C49.0751 49.2832 49.1617 47.5349 49.4485 46.2862C50.0937 43.4774 50.7111 40.6607 51.3318 37.8465C51.5909 36.6723 52.206 35.1842 51.9305 33.9826C51.814 33.4742 51.5494 32.9528 51.1684 32.5925C50.8817 32.3213 50.4022 32.1651 50.3094 31.7412C50.1918 31.2039 50.4071 30.4613 50.459 29.9153C50.5675 28.7745 50.6253 27.6026 50.6754 26.458C50.8188 23.1792 50.5568 19.9373 49.5593 16.7982C46.1701 6.13299 35.51 -0.454825 24.5779 0.0245004C13.3464 0.516945 3.78213 9.09678 1.70653 20.052C1.25792 22.4198 1.21138 24.9786 1.43899 27.3732C1.56437 28.6922 1.95864 30.4288 1.76672 31.7349C1.70367 32.164 1.11454 32.325 0.831185 32.5925C0.379151 33.0189 0.0814805 33.672 0.0175923 34.2876C-0.10687 35.4868 0.461243 36.883 0.710815 38.0499C1.29883 40.7993 1.92163 43.5458 2.551 46.2862C2.84559 47.5688 2.922 49.37 3.97843 50.2843C4.62802 50.8465 5.46066 51.0489 6.29674 50.9011C6.73219 50.8241 7.36367 50.5288 7.80144 50.6477C8.18312 50.7513 8.42206 51.2781 8.73571 51.5089C9.41102 52.0058 10.2614 52.0654 11.0702 51.9499C12.5548 51.738 14.8166 51.4704 15.5197 49.9468C16.242 48.3816 15.2508 46.0345 14.894 44.4559C14.1668 41.238 13.4489 38.0178 12.7382 34.796C12.3927 33.2298 12.2247 31.3891 11.5902 29.9153C10.9012 28.3153 9.19837 28.0917 7.7186 28.5934ZM48.9528 31.7456C48.0721 31.5042 48.2508 30.7897 47.7708 30.1187C47.2421 29.3794 46.4788 29.0168 45.6013 28.8984C45.6192 26.7366 45.9938 24.5631 45.7871 22.3907C45.3243 17.5242 43.0315 12.9763 39.406 9.69763C30.0844 1.2681 14.9086 3.76038 8.67608 14.6628C7.25289 17.1524 6.55322 19.8639 6.27949 22.6958C6.09739 24.5799 6.06017 26.9477 6.49985 28.7968C5.69519 29.1007 4.98754 29.2276 4.38869 29.9168C3.85091 30.5356 3.97576 31.6134 3.04675 31.6439C2.98795 28.792 2.5191 25.9696 2.6445 23.1025C2.8638 18.0882 4.86642 13.1584 8.15424 9.37532C17.2442 -1.084 34.2387 -1.35565 43.5528 8.96858C47.9221 13.8117 49.4349 19.5974 49.3595 25.9496C49.3372 27.8197 49.387 29.9199 48.9528 31.7456ZM8.83579 29.6408C10.9967 29.3437 11.1755 33.6067 11.4977 35.1011C12.2515 38.5977 13.0799 42.0781 13.8337 45.5744C14.0548 46.5999 14.8795 48.4648 14.311 49.4369C13.7568 50.3844 11.5805 50.6469 10.5623 50.7423C9.94623 50.7999 9.37378 50.5136 9.09698 49.9464C8.405 48.5285 8.27581 46.5078 7.94305 44.9643C7.2038 41.5356 6.39989 38.1195 5.64426 34.6944C5.42294 33.6912 4.63134 31.8866 5.18864 30.9336C5.74898 29.9756 7.81887 29.7806 8.83579 29.6408ZM42.5544 29.6502C43.6675 29.3995 46.6951 30.0909 46.9675 31.3387C47.2214 32.5018 46.4372 34.256 46.1893 35.406C45.4722 38.7324 44.7259 42.0546 43.9642 45.3709C43.6688 46.6568 43.3939 47.9475 43.1053 49.2349C42.9543 49.9083 42.6957 50.5509 41.945 50.72C40.8319 50.9707 37.8043 50.2793 37.532 49.0315C37.2692 47.8283 38.0843 45.9531 38.3473 44.7608C39.0653 41.5058 39.767 38.243 40.5349 34.9993C40.8308 33.7494 41.0865 32.4895 41.3712 31.237C41.5313 30.5326 41.7535 29.8306 42.5544 29.6502ZM3.9608 32.8639L7.61704 49.3366C6.73124 49.451 5.57073 49.9988 4.80786 49.2823C4.03569 48.5571 3.98083 46.77 3.74593 45.7776C3.10617 43.0752 2.58107 40.3454 1.94131 37.643C1.70138 36.6294 1.06196 35.1154 1.38649 34.0842C1.69471 33.1049 3.08321 32.9357 3.9608 32.8639V32.8639ZM44.3825 49.3365L48.0388 32.8639C48.9164 32.9357 50.3048 33.1049 50.6131 34.0842C50.9386 35.1182 50.2917 36.625 50.0579 37.643C49.4441 40.3158 48.842 42.9955 48.2632 45.676C48.0447 46.688 47.9762 48.5455 47.1917 49.2823C46.4288 49.9988 45.2684 49.451 44.3825 49.3366V49.3365Z" fill="#5A5A5A"/>
</svg>
