<svg width="52" height="40" viewBox="0 0 52 40" fill="none" xmlns="http://www.w3.org/2000/svg">
<path d="M4.52322 4.32696C3.59792 4.32696 0.844257 3.87448 0.254676 4.67472C-0.118147 5.18086 0.0520501 6.10695 0.0520501 6.69711V11.5451V30.2908V37.2935C0.0520501 37.9562 -0.199698 39.2458 0.404116 39.7064C1.10882 40.2438 3.11048 39.8791 3.97796 39.8791H13.5746H38.5477C42.6788 39.8791 46.8531 40.0538 50.9797 39.8775C52.209 39.8249 51.9612 38.491 51.9612 37.6171V30.399V11.5456V6.69755C51.9612 6.10738 52.1315 5.18132 51.7586 4.67518C51.1691 3.87493 48.4154 4.32742 47.49 4.32742C47.49 3.3576 47.9209 1.01358 47.2159 0.267785C46.8681 -0.100077 46.204 0.0180745 45.7452 0.0180745C44.4662 0.0180745 43.1995 0.0937015 41.9284 0.215242C38.167 0.574838 34.5418 1.27678 30.914 2.32619C29.7585 2.66048 28.6477 3.10638 27.5334 3.55163C27.0766 3.73426 26.5071 4.12714 26.0066 4.12057C25.439 4.11259 24.777 3.66617 24.2618 3.4494C23.164 2.9875 22.0236 2.59023 20.8812 2.2503C17.347 1.19875 13.7519 0.565823 10.0849 0.215242C8.81376 0.0936536 7.54706 0.0180745 6.26806 0.0180745C5.80923 0.0180745 5.14512 -0.100013 4.79737 0.267785C4.09232 1.01358 4.52322 3.3576 4.52322 4.32742V4.32696ZM25.2433 37.9404C23.6531 37.4912 22.1506 36.7237 20.554 36.2623C15.8768 34.9108 10.9278 34.0652 6.04996 34.0619V1.52634C10.9344 1.52634 15.7701 2.31997 20.4449 3.71118C21.59 4.05194 22.7161 4.44539 23.8256 4.88774C24.2221 5.04587 24.8749 5.21848 25.1312 5.58111C25.4911 6.09048 25.2433 7.38522 25.2433 7.99037V14.2389V37.9404H25.2433ZM45.9633 1.52634V34.0619C41.0849 34.0624 36.1363 34.9109 31.4593 36.2623C29.8626 36.7237 28.3602 37.4912 26.77 37.9404V14.2389V7.99037C26.77 7.38544 26.5221 6.09027 26.8821 5.58111C27.1228 5.24068 27.7108 5.1002 28.0786 4.94357C29.2164 4.45887 30.3826 4.06261 31.5683 3.71118C36.2464 2.32459 41.0775 1.52634 45.9633 1.52634H45.9633ZM4.52319 5.83572V27.8134V33.2001C4.52319 33.8442 4.34416 34.8224 4.88071 35.308C5.27242 35.6625 5.88858 35.5702 6.37708 35.5702C7.42341 35.5702 8.50084 35.5877 9.53962 35.7087C13.877 36.2143 17.8498 37.2966 22.0807 38.2636V38.3713H1.5788V5.83574H4.52322L4.52319 5.83572ZM50.4345 5.83574V38.3713H29.9325V38.2636C34.1636 37.2966 38.1368 36.2143 42.4736 35.7087C43.5124 35.5877 44.5898 35.5702 45.6362 35.5702C46.1246 35.5702 46.7409 35.6626 47.1325 35.308C47.6691 34.8224 47.49 33.8442 47.49 33.2001V27.8134V5.83572H50.4345V5.83574ZM9.64923 6.88525C9.0307 7.0046 8.7531 7.8294 9.33769 8.18817C10.1076 8.66058 11.5926 8.52805 12.4841 8.65077C14.6501 8.94897 16.8149 9.36452 18.9182 9.96092C19.6402 10.1656 21.2542 10.9791 21.9555 10.5729C22.4232 10.302 22.339 9.65648 21.9555 9.35893C21.3886 8.91894 20.3663 8.79976 19.6816 8.60541C17.2582 7.91743 14.77 7.40786 12.266 7.1118C11.471 7.01782 10.4421 6.73226 9.64923 6.88525ZM42.1465 6.87088C38.9199 6.84838 35.4123 7.73047 32.3317 8.60495C31.6272 8.80501 30.5529 8.92783 29.9756 9.3899C29.5798 9.70675 29.5986 10.3144 30.0561 10.5724C30.7689 10.9744 32.3642 10.1677 33.095 9.96046C35.2005 9.3634 37.361 8.94884 39.5291 8.65031C40.4079 8.52936 41.9147 8.66468 42.6668 8.18771C43.3717 7.74092 42.8468 6.87583 42.1464 6.87088H42.1465ZM9.33764 12.1945C8.71542 12.5587 9.08551 13.3416 9.65029 13.4991C10.6021 13.7646 11.7185 13.7097 12.7021 13.8535C14.7968 14.1599 16.8777 14.5857 18.9181 15.146C19.6327 15.3422 21.3903 16.2265 22.046 15.6818C23.3052 14.6357 20.3457 13.9649 19.7906 13.8075C17.2991 13.1012 14.7299 12.5867 12.1569 12.2826C11.4079 12.194 10.0285 11.7902 9.33764 12.1945V12.1945ZM41.1649 12.1294C38.0131 12.5394 34.9713 13.0964 31.8954 13.9027C31.3585 14.0434 28.5256 14.9007 30.0534 15.7435C30.7749 16.1416 32.2576 15.3812 32.986 15.1767C35.1486 14.5697 37.4017 14.0618 39.6382 13.8128C40.4329 13.7244 42.1519 13.8444 42.7661 13.313C43.95 12.2887 41.7474 12.0536 41.1649 12.1294ZM9.33764 17.3656C8.70464 17.7359 9.07678 18.5199 9.64919 18.6852C10.5587 18.9478 11.6493 18.8798 12.5931 19.0243C14.77 19.3579 16.9005 19.7939 19.0272 20.3629C19.7506 20.5564 21.4586 21.4351 22.1181 20.8379C23.2877 19.7788 20.3467 19.1495 19.7906 18.9937C17.2542 18.2836 14.6659 17.7632 12.0478 17.4537C11.3251 17.3683 10.0041 16.9758 9.33764 17.3656V17.3656ZM41.274 17.3005C38.1715 17.7042 35.1309 18.1741 32.1135 19.0239C31.62 19.1631 28.5343 19.9691 29.9756 20.8985C30.696 21.363 32.1415 20.5835 32.8769 20.3916C35.103 19.8107 37.3479 19.2697 39.6382 18.9953C40.4364 18.8995 42.1562 19.0301 42.7661 18.4869C43.8853 17.4901 41.8807 17.2216 41.274 17.3005ZM9.33764 22.5368C8.70988 22.904 9.07372 23.7064 9.64919 23.8726C10.6788 24.17 11.957 24.1226 13.0293 24.2715C15.011 24.5468 16.9941 24.9632 18.9181 25.505C19.6411 25.7085 21.3579 26.5772 22.0333 26.0778C23.3959 25.0705 20.4217 24.3593 19.8996 24.2122C17.357 23.4953 14.7748 22.9959 12.1569 22.6415C11.4292 22.5431 10.0049 22.1465 9.33764 22.5368V22.5368ZM41.3831 22.4717C38.2439 22.8792 35.1678 23.3511 32.1135 24.2122C31.4855 24.3892 30.4568 24.5229 29.9629 24.9592C29.5856 25.2926 29.5968 25.8933 30.0648 26.1433C30.7621 26.5159 32.2733 25.7348 32.9859 25.5353C35.19 24.918 37.471 24.4365 39.7472 24.1665C40.5159 24.0754 42.1884 24.1968 42.766 23.6635C43.8142 22.6958 42.0178 22.3894 41.383 22.4717H41.3831ZM9.43694 27.6772C8.78713 27.9458 8.95806 28.7954 9.54163 29.0256C10.3752 29.3544 11.5881 29.236 12.484 29.367C14.6149 29.6787 16.7322 30.0893 18.809 30.6595C19.5489 30.8627 21.2594 31.7375 21.9555 31.2739C23.4478 30.28 20.3308 29.5186 19.7905 29.3664C17.3005 28.665 14.7328 28.1041 12.1568 27.8181C11.3891 27.7329 10.1713 27.3737 9.43694 27.6772V27.6772ZM41.492 27.6429C38.3125 28.0554 35.206 28.5194 32.1135 29.3974C31.4608 29.5827 30.4921 29.7086 29.9629 30.1508C29.5764 30.4737 29.5884 31.0868 30.0561 31.3321C30.7757 31.7096 32.3594 30.8968 33.095 30.6903C35.2688 30.0801 37.5073 29.6423 39.7473 29.3514C40.534 29.2491 42.0301 29.3845 42.6756 28.9178C43.8317 28.0819 42.201 27.551 41.4921 27.6429H41.492Z" fill="#5A5A5A"/>
</svg>
