<svg width="52" height="52" viewBox="0 0 52 52" fill="none" xmlns="http://www.w3.org/2000/svg">
<path d="M32.186 0.087169C29.9637 0.375177 27.8492 0.658347 25.7079 1.3635C24.6872 1.69962 23.2625 2.7058 22.2117 2.73061C21.7786 2.74153 21.3329 2.28311 20.9778 2.07543C20.266 1.65914 19.5124 1.32438 18.7156 1.1025C14.9935 0.0659545 10.908 1.67631 8.88814 4.91574C7.36112 7.36481 7.22927 10.4148 8.374 13.0352C8.72896 13.8477 9.81026 14.7458 9.94855 15.5725C10.0683 16.2879 9.41672 17.3927 9.25685 18.1098C8.88653 19.7709 8.73517 21.4832 8.85332 23.1845C9.09167 26.6168 11.8456 30.0025 10.9258 33.4352C9.95169 37.0705 6.96515 38.7644 4.0112 40.7089C2.62125 41.6238 0.241884 42.7877 0.0198695 44.5994C-0.139133 45.8969 0.682484 46.693 1.54332 47.5427L4.73099 50.689C5.41972 51.3685 6.1513 52.0434 7.19885 51.9978C8.95677 51.9213 9.92413 50.1309 10.8265 48.8621C12.769 46.1311 14.1889 42.7726 17.4817 41.352C21.4811 39.6265 24.7797 42.4936 28.7927 42.6671C37.2762 43.0337 44.5378 37.4271 48.6949 30.4919C54.0948 21.4833 53.2936 7.88762 43.1886 2.41007C41.5867 1.54172 39.8394 0.890779 38.0472 0.531351C36.1825 0.157404 34.0877 -0.159267 32.186 0.087169ZM11.4148 16.6889C13.7555 17.42 15.416 18.4082 17.9958 17.9458C22.4853 17.1412 25.5047 12.8665 25.0734 8.46799C24.9159 6.86085 24.1297 5.56991 23.3428 4.2053C32.307 -0.958814 45.5086 1.94659 49.25 12.0203C51.6259 18.4172 49.8655 25.5342 46.2679 31.1009C43.8674 34.8153 39.9713 38.2427 35.785 39.8484C34.7813 40.2335 32.6479 41.2139 31.5691 40.8123C30.4305 40.3884 29.2387 38.6455 28.3814 37.7994L20.9778 30.4919L13.677 23.2859C12.8426 22.4623 11.1669 21.3431 10.757 20.2411C10.3835 19.2369 11.1847 17.6705 11.4148 16.6889ZM16.0421 2.5089C19.9358 2.06138 23.5201 5.74488 23.419 9.48292C23.3237 13.0075 20.6818 16.0222 17.0703 16.3672C10.9754 16.9493 6.98381 9.6958 10.9342 5.01725C12.2606 3.44633 14.039 2.73913 16.0421 2.5089ZM15.4251 4.35136C13.6339 4.62975 12.0363 5.97765 11.4241 7.65605C11.1634 8.37073 10.6755 10.515 12.1331 10.2647C13.0392 10.1091 13.0971 8.04428 13.6442 7.35195C14.1121 6.75985 14.7879 6.29861 15.5279 6.10937C15.9855 5.99229 16.5418 6.06379 16.9244 5.73999C18.1288 4.72076 16.1691 4.23571 15.4251 4.35136ZM10.695 22.677L23.0344 34.8561C25.0006 36.7969 27.5011 38.7036 29.1012 40.9457C26.1201 40.8849 23.595 39.1217 20.6693 38.9249C18.8747 38.8041 16.9097 39.5492 15.4251 40.4931C12.7724 42.1797 11.5011 44.8636 9.77201 47.3397C9.21196 48.1417 8.37193 49.8671 7.40413 50.2061C6.77107 50.4278 6.25118 49.7529 5.8621 49.3696L2.67443 46.2233C2.27772 45.8311 1.62616 45.337 1.8034 44.7024C1.95682 44.1533 2.65539 43.7721 3.08573 43.4479C4.26918 42.5563 5.52749 41.7828 6.78755 41.0041C9.67065 39.2224 11.9594 36.7861 12.708 33.4352C13.3147 30.719 11.9448 28.531 11.1803 26.0262C10.9099 25.1401 10.3164 23.5695 10.695 22.677Z" fill="#5A5A5A"/>
</svg>
